<?xml version="1.0" encoding="UTF-8" standalone="no"?>
<!-- Created with Inkscape (http://www.inkscape.org/) -->

<svg
   xmlns:dc="http://purl.org/dc/elements/1.1/"
   xmlns:cc="http://creativecommons.org/ns#"
   xmlns:rdf="http://www.w3.org/1999/02/22-rdf-syntax-ns#"
   xmlns:svg="http://www.w3.org/2000/svg"
   xmlns="http://www.w3.org/2000/svg"
   xmlns:sodipodi="http://sodipodi.sourceforge.net/DTD/sodipodi-0.dtd"
   xmlns:inkscape="http://www.inkscape.org/namespaces/inkscape"
   id="svg4142"
   version="1.1"
   inkscape:version="0.92.3 (2405546, 2018-03-11)"
   width="484"
   height="466"
   viewBox="0 0 484 466"
   sodipodi:docname="logo.svg">
  <metadata
     id="metadata4148">
    <rdf:RDF>
      <cc:Work
         rdf:about="">
        <dc:format>image/svg+xml</dc:format>
        <dc:type
           rdf:resource="http://purl.org/dc/dcmitype/StillImage" />
        <dc:title></dc:title>
      </cc:Work>
    </rdf:RDF>
  </metadata>
  <defs
     id="defs4146" />
  <sodipodi:namedview
     pagecolor="#ffffff"
     bordercolor="#666666"
     borderopacity="1"
     objecttolerance="10"
     gridtolerance="10"
     guidetolerance="10"
     inkscape:pageopacity="0"
     inkscape:pageshadow="2"
     inkscape:window-width="1920"
     inkscape:window-height="1017"
     id="namedview4144"
     showgrid="false"
     showguides="false"
     inkscape:zoom="0.7071068"
     inkscape:cx="205.6042"
     inkscape:cy="110.97141"
     inkscape:window-x="-8"
     inkscape:window-y="-8"
     inkscape:window-maximized="1"
     inkscape:current-layer="layer2" />
  <g
     inkscape:groupmode="layer"
     id="layer1"
     inkscape:label="Layer 1"
     style="display:inline"
     transform="translate(0,-46)">
    <path
       id="path4694"
       transform="translate(0,46)"
       style="fill:#0e8c8c;fill-opacity:1;stroke:#ffffff;stroke-width:0;stroke-miterlimit:4;stroke-dasharray:none;stroke-opacity:1"
       d="m 254.06055,-0.17773438 c -1.82519,-0.01777 -3.65105,-0.0139781 -5.47657,0.0136719 C 138.39186,-1.1641075 34.493197,88.150654 20.527344,197.77734 5.5442802,291.78223 54.242622,393.14184 139.5625,437.50586 216.56709,479.64295 316.73676,474.6113 387.50195,421.59375 460.32873,369.34742 498.75982,274.11842 479.13867,186.1543 463.77444,109.72401 408.07372,42.54468 334.23438,15.443359 308.72251,5.5398474 281.43832,0.09493263 254.06055,-0.17773438 Z m 2.10156,22.16601538 c 78.39287,0.720944 153.21317,50.901172 186.08789,122.082029 37.60557,76.4611 19.42465,173.55338 -39.25391,234.78711 -59.47264,64.39433 -160.6507,82.08195 -239.62695,45.61133 C 122.33081,406.74053 89.284092,374.6718 67.773438,336.06641 a 4.7828372,6.263974 0 0 1 -0.03125,0.0156 7.3312535,7.3312535 0 0 1 -6.710938,4.39258 7.3312535,7.3312535 0 0 1 -7.328125,-7.33203 7.3312535,7.3312535 0 0 1 7.328125,-7.32813 7.3312535,7.3312535 0 0 1 1.369141,0.13086 4.7828372,6.263974 0 0 1 0.03516,-0.0508 C 44.03006,288.40114 36.206703,245.66828 42.03125,204.23828 53.725112,104.40237 146.33088,22.119161 246.87891,22.082031 l 1.68945,-0.0078 c 2.53495,-0.08061 5.06496,-0.109087 7.59375,-0.08594 z" />
  </g>
  <g
     inkscape:groupmode="layer"
     id="layer2"
     inkscape:label="Layer 2"
     style="display:inline"
     transform="translate(0,-46)">
    <path
       id="path4723"
       transform="translate(0,46)"
       style="opacity:0.95;fill:#0e8c8c;fill-opacity:1;fill-rule:nonzero;stroke:none;stroke-width:1px;stroke-linecap:butt;stroke-linejoin:miter;stroke-opacity:1"
       d="m 289.46484,69.001953 c -2.61196,0.029 -5.1702,0.242323 -7.625,0.632813 -29.89445,4.7552 -46.09651,36.182884 -59.41601,63.365234 -16.71501,34.11187 -20.36022,78.07287 -19.86719,116.05664 0.28236,21.75389 -0.80781,29.47968 9.75391,64.88086 1.61572,5.41563 3.47535,10.93335 5.55859,16.41992 -10.66946,9.15601 -22.42657,16.79275 -35.23047,22.08985 -17.33871,7.17318 -46.63648,0.61863 -56.2832,-2.50196 -25.08036,-8.11322 -27.926939,-21.05334 -40.955079,-27.19726 -13.028127,-6.14391 -28.670636,-4.59886 -41.201172,-0.54102 -22.028182,7.13351 -34.3332594,-6.62455 -42.6113284,6.46875 -9.670436,15.29558 27.5373794,28.91609 45.5957034,46.88086 18.058324,17.96477 30.848322,8.00318 66.316406,13.88477 35.46807,5.8816 86.50024,-5.66441 112.10742,-21.125 2.52854,-1.52662 5.30176,-3.63484 8.2461,-6.19922 10.02957,14.86507 23.07063,26.6656 40.08789,31.15429 27.2324,7.18318 48.25905,-13.13827 65.86718,-30.08203 3.35361,-3.22707 3.36239,-2.70982 6.42969,-6.15429 7.47876,16.84462 19.43136,26.54062 25.57617,29.44336 22.51124,10.63413 32.71281,-1.72824 52.67383,3.95117 9.75258,2.77485 20.69043,12.89265 3.20117,32.00586 18.04025,-8.22498 25.38399,-21.18774 20.20703,-35.83789 -10.35145,-29.29342 -45.90779,-10.02078 -63.94336,-22.92969 -12.87686,-9.2166 -16.67933,-17.8066 -19.43554,-29.5918 15.20588,-21.55145 24.03245,-43.1088 26.41211,-55.53711 7.9741,-41.64644 -2.85154,-50.01077 -6.91602,-53.51562 -10.65482,-9.18779 -30.21636,-9.37159 -47.65429,17.96094 -10.61834,16.64334 -12.14906,33.65478 -8.67774,59.25976 1.73653,12.80892 7.06648,26.02562 7.62305,27.3457 -12.53513,15.38907 -23.66826,25.47431 -40.91797,30.63672 -15.2517,4.56447 -28.05578,-5.03305 -37.8418,-22.77539 23.16779,-29.14405 48.2499,-71.24896 57.71094,-102.16797 13.99762,-45.74478 37.36442,-83.96851 20.61523,-137.710934 -6.22343,-19.9688 -27.12256,-28.773913 -45.40625,-28.570313 z m 5.92969,34.773437 c 0.46079,0.0204 0.91857,0.0647 1.37695,0.13086 9.08869,1.44036 10.14678,30.04568 1.75391,71.09375 -7.2274,35.34797 -21.56938,72.57634 -35.32617,97.75586 -5.67295,10.3834 -12.23227,20.63068 -19.63672,30.25586 -4.62951,-17.92318 -7.5174,-38.43942 -8.41992,-59.30078 -2.27338,-52.54782 31.2216,-141.21541 60.25195,-139.93555 z M 362.25,259.35938 c 7.05089,-0.72596 2.55538,23.7487 -1.70508,33.72265 -1.72784,4.04495 -3.72476,8.09535 -5.91797,12.10742 -0.66675,-2.94255 -1.28786,-5.98794 -1.86133,-9.19531 -1.96026,-10.96357 0.62858,-33.99042 8.76563,-36.48437 0.25186,-0.0772 0.49132,-0.12691 0.71875,-0.15039 z M 61.03125,325.81445 c 4.048333,-6.4e-4 7.330538,3.2798 7.332031,7.32813 6.28e-4,4.04983 -3.282198,7.33267 -7.332031,7.33203 -4.048322,-0.002 -7.328753,-3.28371 -7.328125,-7.33203 0.0015,-4.04682 3.281302,-7.32663 7.328125,-7.32813 z" />
  </g>
</svg>
