<?xml version="1.0" encoding="UTF-8" standalone="no"?>
<!-- Created with Inkscape (http://www.inkscape.org/) -->

<svg
   xmlns:dc="http://purl.org/dc/elements/1.1/"
   xmlns:cc="http://creativecommons.org/ns#"
   xmlns:rdf="http://www.w3.org/1999/02/22-rdf-syntax-ns#"
   xmlns:svg="http://www.w3.org/2000/svg"
   xmlns="http://www.w3.org/2000/svg"
   xmlns:sodipodi="http://sodipodi.sourceforge.net/DTD/sodipodi-0.dtd"
   xmlns:inkscape="http://www.inkscape.org/namespaces/inkscape"
   id="svg4142"
   version="1.1"
   inkscape:version="0.91 r13725"
   width="484"
   height="466"
   viewBox="0 0 484 466"
   sodipodi:docname="logo_alt.svg">
  <metadata
     id="metadata4148">
    <rdf:RDF>
      <cc:Work
         rdf:about="">
        <dc:format>image/svg+xml</dc:format>
        <dc:type
           rdf:resource="http://purl.org/dc/dcmitype/StillImage" />
        <dc:title></dc:title>
      </cc:Work>
    </rdf:RDF>
  </metadata>
  <defs
     id="defs4146" />
  <sodipodi:namedview
     pagecolor="#ffffff"
     bordercolor="#666666"
     borderopacity="1"
     objecttolerance="10"
     gridtolerance="10"
     guidetolerance="10"
     inkscape:pageopacity="0"
     inkscape:pageshadow="2"
     inkscape:window-width="1855"
     inkscape:window-height="1056"
     id="namedview4144"
     showgrid="false"
     showguides="false"
     inkscape:zoom="0.50000001"
     inkscape:cx="-68.444442"
     inkscape:cy="-12.085731"
     inkscape:window-x="65"
     inkscape:window-y="24"
     inkscape:window-maximized="1"
     inkscape:current-layer="layer2" />
  <g
     inkscape:groupmode="layer"
     id="layer1"
     inkscape:label="Layer 1"
     style="display:inline"
     transform="translate(0,-46)">
    <path
       style="fill:#0e8c8c;fill-opacity:1;stroke:#ffffff;stroke-width:0;stroke-miterlimit:4;stroke-dasharray:none;stroke-opacity:1"
       d="m 254.06081,45.821358 c -1.82519,-0.01777 -3.6516,-0.01224 -5.47712,0.01541 C 138.39157,44.836723 34.493068,134.15009 20.527215,243.77678 5.5441515,337.78167 54.242132,439.14091 139.56201,483.50493 216.5666,525.64202 316.73679,520.61184 387.50198,467.59429 460.32876,415.34796 498.76074,320.11939 479.13959,232.15527 463.77536,155.72498 408.07439,88.544011 334.23504,61.44269 308.72318,51.539178 281.43858,46.093986 254.06081,45.821319 Z m 2.10214,22.166905 c 78.39287,0.720944 153.21237,50.901067 186.08709,122.081927 37.60557,76.4611 19.42457,173.55344 -39.25399,234.78717 -59.47264,64.39433 -160.65161,82.08116 -239.62786,45.61054 -41.03833,-17.72822 -74.084374,-49.79612 -95.595029,-88.40151 a 4.7828372,6.263974 0 0 1 -0.03079,0.0158 7.3312535,7.3312535 0 0 1 -6.711395,4.39327 7.3312535,7.3312535 0 0 1 -7.328549,-7.3324 7.3312535,7.3312535 0 0 1 7.328549,-7.32854 7.3312535,7.3312535 0 0 1 1.369275,0.13112 4.7828372,6.263974 0 0 1 0.03479,-0.0502 C 44.029554,334.40205 36.206226,291.66786 42.030773,250.23786 53.724635,150.40195 146.3309,68.11831 246.87893,68.08118 l 1.68942,-0.0073 c 2.53495,-0.08061 5.06588,-0.108009 7.59467,-0.08486 z"
       id="path4694"
       inkscape:connector-curvature="0"
       inkscape:export-xdpi="90"
       inkscape:export-ydpi="90" />
  </g>
  <g
     inkscape:groupmode="layer"
     id="layer2"
     inkscape:label="Layer 2"
     style="display:inline"
     transform="translate(0,-46)">
    <path
       style="opacity:0.95;fill:#0e8c8c;fill-opacity:1;fill-rule:nonzero;stroke:none;stroke-width:1px;stroke-linecap:butt;stroke-linejoin:miter;stroke-opacity:1"
       d="m 289.46538,115.00278 c -2.61196,0.029 -5.17075,0.2421 -7.62555,0.63259 -29.89445,4.7552 -46.09566,36.18251 -59.41516,63.36486 -16.71501,34.11187 -20.36109,78.07333 -19.86806,116.0571 0.28236,21.75389 -0.80706,29.47956 9.75466,64.88074 1.61572,5.41563 3.47489,10.93321 5.55813,16.41978 -10.66946,9.15601 -22.42711,16.79268 -35.23101,22.08978 -17.33871,7.17318 -46.63647,0.61731 -56.28319,-2.50328 -25.08036,-8.11322 -27.926844,-21.0527 -40.954984,-27.19662 -13.028127,-6.14391 -28.671276,-4.59782 -41.201812,-0.53998 -22.028182,7.13351 -34.3316095,-6.6249 -42.6096785,6.4684 -9.670436,15.29558 27.5367735,28.91475 45.5950975,46.87952 18.058324,17.96477 30.847503,8.00406 66.315587,13.88565 35.46807,5.8816 86.50021,-5.6649 112.10739,-21.12549 2.52854,-1.52662 5.3022,-3.63402 8.24654,-6.1984 10.02957,14.86507 23.06983,26.66532 40.08709,31.15401 27.2324,7.18318 48.26004,-13.13796 65.86817,-30.08172 3.35361,-3.22707 3.36269,-2.71041 6.42999,-6.15488 7.47876,16.84462 19.43164,26.54146 25.57645,29.4442 22.51124,10.63413 32.71191,-1.7297 52.67293,3.94971 9.75258,2.77485 20.69067,12.89323 3.20141,32.00644 18.04025,-8.22498 25.38444,-21.18641 20.20748,-35.83656 -10.35145,-29.29342 -45.90788,-10.02171 -63.94343,-22.93062 -12.87687,-9.2166 -16.67985,-17.80669 -19.43606,-29.59189 15.20588,-21.55145 24.03277,-43.10916 26.41243,-55.53747 7.9741,-41.64644 -2.85128,-50.01027 -6.91576,-53.51512 -10.65482,-9.18779 -30.21767,-9.37123 -47.65562,17.96129 -10.61833,16.64335 -12.14891,33.65459 -8.67759,59.25957 1.73653,12.80892 7.06759,26.0244 7.62416,27.34448 -12.53513,15.38907 -23.6682,25.47616 -40.91791,30.63857 -15.2517,4.56447 -28.05625,-5.03399 -37.84227,-22.77633 23.16779,-29.14405 48.2493,-71.24858 57.71034,-102.16759 13.99762,-45.74478 37.36552,-83.96857 20.61633,-137.71099 -6.22343,-19.9688 -27.12241,-28.77335 -45.4061,-28.56975 z m 5.92841,34.772 c 0.46079,0.0204 0.91861,0.065 1.37699,0.13113 9.08869,1.44036 10.14786,30.0465 1.75499,71.09457 -7.2274,35.34797 -21.57063,72.5755 -35.32742,97.75502 -5.67295,10.3834 -12.23218,20.63012 -19.63663,30.2553 -4.62951,-17.92318 -7.51759,-38.43809 -8.42011,-59.29945 -2.27338,-52.54782 31.22183,-141.21643 60.25218,-139.93657 z m 66.85557,155.58494 c 7.05089,-0.72595 2.55562,23.7489 -1.70484,33.72285 -1.72784,4.04495 -3.72362,8.09546 -5.91683,12.10753 -0.66675,-2.94255 -1.28954,-5.98802 -1.86299,-9.19539 -1.96026,-10.96357 0.6302,-33.99062 8.76725,-36.48457 0.25186,-0.0772 0.48998,-0.12698 0.71741,-0.15047 z M 61.030903,371.81416 c 4.048333,-6.4e-4 7.330911,3.28022 7.332404,7.32855 6.28e-4,4.04983 -3.282571,7.33303 -7.332404,7.33239 -4.048322,-0.002 -7.329164,-3.28407 -7.328536,-7.33239 0.0015,-4.04682 3.281713,-7.32705 7.328536,-7.32855 z"
       id="path4723"
       inkscape:connector-curvature="0"
       inkscape:export-xdpi="90"
       inkscape:export-ydpi="90"
       sodipodi:nodetypes="csssscssssszsscsscsscsscsssscscsscccsscsccscscccccccc" />
  </g>
  <circle
     style="fill:#ffffff;fill-opacity:1;fill-rule:nonzero;stroke:none;stroke-width:0;stroke-miterlimit:4;stroke-dasharray:none;stroke-opacity:1"
     id="path5362"
     cx="-1.1410455"
     cy="370.50485"
     inkscape:export-xdpi="90"
     inkscape:export-ydpi="90"
     r="7.390255" />
</svg>
